<?xml version="1.0" standalone="no"?><!DOCTYPE svg PUBLIC "-//W3C//DTD SVG 1.1//EN" "http://www.w3.org/Graphics/SVG/1.1/DTD/svg11.dtd"><svg t="1748191140283" class="icon" viewBox="0 0 1024 1024" version="1.1" xmlns="http://www.w3.org/2000/svg" p-id="22657" width="256" height="256" xmlns:xlink="http://www.w3.org/1999/xlink"><path d="M146.286 237.714C135.314 237.714 128 245.03 128 256s7.314 18.286 18.286 18.286H804.57c10.972 0 18.286-7.315 18.286-18.286s-7.314-18.286-18.286-18.286H146.286z m0 146.286C135.314 384 128 391.314 128 402.286s7.314 18.285 18.286 18.285h512c10.971 0 18.285-7.314 18.285-18.285S669.257 384 658.286 384h-512z m0 146.286c-10.972 0-18.286 7.314-18.286 18.285s7.314 18.286 18.286 18.286h384c3.657-10.971 10.971-25.6 18.285-36.571H146.286zM512 676.57c0 10.972 3.657 25.6 3.657 36.572H146.286c-10.972 0-18.286-7.314-18.286-18.286s7.314-18.286 18.286-18.286H512z m256-160.914c-76.8 0-142.629 62.172-142.629 142.629S687.543 800.914 768 800.914s142.629-62.171 142.629-142.628S844.8 515.657 768 515.657zM585.143 658.286c0-102.4 80.457-182.857 182.857-182.857s182.857 80.457 182.857 182.857S870.4 841.143 768 841.143s-182.857-80.457-182.857-182.857zM768 541.257c10.971 0 21.943 10.972 21.943 21.943v84.114l54.857 25.6c10.971 3.657 14.629 18.286 10.971 29.257-3.657 10.972-18.285 14.629-29.257 10.972l-65.828-32.914c-7.315-3.658-10.972-10.972-10.972-18.286V563.2c-3.657-14.629 7.315-21.943 18.286-21.943z" fill="#e6e6e6" p-id="22658"></path></svg>