<?xml version="1.0" standalone="no"?><!DOCTYPE svg PUBLIC "-//W3C//DTD SVG 1.1//EN" "http://www.w3.org/Graphics/SVG/1.1/DTD/svg11.dtd"><svg t="1748190756577" class="icon" viewBox="0 0 1024 1024" version="1.1" xmlns="http://www.w3.org/2000/svg" p-id="20603" xmlns:xlink="http://www.w3.org/1999/xlink" width="200" height="200"><path d="M300.8 473.6C300.8 352 396.8 256 518.4 256h6.4v-38.4c-140.8 0-249.6 108.8-256 243.2v6.4l32 6.4z" p-id="20604" fill="#e6e6e6"></path><path d="M819.2 467.2c-6.4-6.4-6.4-6.4 0 0-6.4-172.8-140.8-313.6-307.2-313.6-147.2 0-275.2 108.8-300.8 256C96 422.4 6.4 524.8 6.4 640c0 121.6 96 217.6 217.6 224h614.4c102.4-6.4 185.6-96 185.6-198.4-6.4-108.8-96-198.4-204.8-198.4z m-582.4 345.6s-6.4 0 0 0C134.4 812.8 57.6 736 57.6 640c0-96 76.8-172.8 172.8-172.8h32v-32C275.2 307.2 384 211.2 512 211.2c134.4 0 249.6 115.2 249.6 249.6 0 19.2 0 38.4-6.4 57.6v12.8h6.4l6.4-6.4c6.4 0 6.4 0 12.8-6.4h38.4c83.2 0 147.2 64 147.2 147.2 0 76.8-57.6 140.8-134.4 147.2H236.8z" p-id="20605" fill="#e6e6e6"></path><path d="M332.8 620.8h83.2v121.6h147.2c6.4 19.2 32 32 51.2 32 32 0 57.6-25.6 57.6-57.6s-25.6-57.6-57.6-57.6c-19.2 0-44.8 12.8-51.2 32H460.8V620.8h134.4c6.4 19.2 32 32 51.2 32 32 0 57.6-25.6 57.6-57.6s-25.6-57.6-57.6-57.6c-19.2 6.4-44.8 19.2-51.2 38.4H460.8V505.6h102.4c12.8 19.2 32 32 51.2 32 32 0 57.6-25.6 57.6-57.6s-25.6-57.6-57.6-57.6c-19.2 0-38.4 12.8-51.2 32H416V576H332.8c-12.8-19.2-32-32-51.2-32-32 0-57.6 25.6-57.6 57.6s25.6 57.6 57.6 57.6c19.2 0 38.4-12.8 51.2-38.4z m-64-19.2c0-6.4 6.4-12.8 12.8-12.8s12.8 6.4 12.8 12.8-6.4 12.8-12.8 12.8c-6.4-6.4-12.8-6.4-12.8-12.8z m345.6 128c-6.4 0-12.8-6.4-12.8-12.8s6.4-12.8 12.8-12.8 12.8 6.4 12.8 12.8-6.4 12.8-12.8 12.8z m19.2-128c0-6.4 6.4-12.8 12.8-12.8s12.8 6.4 12.8 12.8-6.4 12.8-12.8 12.8c-6.4-6.4-12.8-6.4-12.8-12.8z m-25.6-121.6c0-6.4 6.4-12.8 12.8-12.8s12.8 6.4 12.8 12.8-6.4 12.8-12.8 12.8c-12.8 0-12.8-6.4-12.8-12.8z" p-id="20606" fill="#e6e6e6"></path></svg>